<svg width="114" height="28" viewBox="0 0 114 28" fill="none" xmlns="http://www.w3.org/2000/svg">
<path fill-rule="evenodd" clip-rule="evenodd" d="M29.4518 0.887939L40.5178 26.1219H35.8098L32.8398 19.3679H23.1598L20.3438 26.1219H17.7918L29.4518 0.887939ZM32.2458 17.9819L27.8678 8.01594L23.7098 17.9819H32.2458ZM0 26.1219V1.72394H7.172C7.744 1.72394 8.316 1.73127 8.888 1.74594C9.47467 1.76061 10.0467 1.81927 10.604 1.92194C12.2467 2.20061 13.5007 2.86061 14.366 3.90194C15.246 4.92861 15.686 6.25594 15.686 7.88394C15.686 9.20394 15.378 10.2893 14.762 11.1399C14.1607 11.9759 13.2147 12.5773 11.924 12.9439C12.8333 13.0613 13.6547 13.3033 14.388 13.6699C15.1213 14.0366 15.7373 14.5059 16.236 15.0779C16.7493 15.6499 17.138 16.3173 17.402 17.0799C17.6807 17.8426 17.82 18.6786 17.82 19.5879C17.82 20.9959 17.5487 22.1326 17.006 22.9979C16.4633 23.8486 15.7447 24.5086 14.85 24.9779C13.97 25.4326 12.9653 25.7406 11.836 25.9019C10.7067 26.0486 9.56267 26.1219 8.404 26.1219H4.202C2.80867 26.1073 1.408 26.1073 0 26.1219ZM4.334 13.8899V24.7579H6.864C7.832 24.7579 8.70467 24.6699 9.482 24.4939C10.2593 24.3179 10.9193 24.0246 11.462 23.6139C12.0047 23.1886 12.4227 22.6239 12.716 21.9199C13.0093 21.2013 13.156 20.3066 13.156 19.2359C13.156 18.7373 13.09 18.2313 12.958 17.7179C12.8407 17.2046 12.6573 16.7279 12.408 16.2879C12.1733 15.8333 11.8727 15.4299 11.506 15.0779C11.1393 14.7259 10.7067 14.4619 10.208 14.2859C9.62133 14.0806 8.96133 13.9633 8.228 13.9339C7.50933 13.8899 6.842 13.8679 6.226 13.8679C5.918 13.8679 5.60267 13.8753 5.28 13.8899H4.334ZM4.356 12.5039H4.84C5.764 12.5039 6.6 12.4673 7.348 12.3939C8.11067 12.3206 8.756 12.1299 9.284 11.8219C9.82667 11.5139 10.2447 11.0519 10.538 10.4359C10.846 9.80527 11 8.93994 11 7.83994C11 6.31461 10.604 5.14127 9.812 4.31994C9.02 3.48394 7.82467 3.06594 6.226 3.06594H4.356V12.5039ZM41.172 27.1119L49.048 16.8379L55.934 26.1219H61.214L51.886 13.1419L60.62 1.72394H58.068L45.55 18.8839L45.506 1.67994H41.172V27.1119ZM62.5534 20.1599C62.8614 20.6439 63.1841 21.0986 63.5214 21.5239C63.8587 21.9346 64.2474 22.3306 64.6874 22.7119C65.5967 23.5039 66.6381 24.1126 67.8114 24.5379C68.9847 24.9486 70.1654 25.1539 71.3534 25.1539C71.9254 25.1539 72.4974 25.0806 73.0694 24.9339C73.6414 24.7873 74.1474 24.5673 74.5874 24.2739C75.0421 23.9659 75.4087 23.5773 75.6874 23.1079C75.9661 22.6386 76.1054 22.0813 76.1054 21.4359C76.1054 20.5413 75.9147 19.7639 75.5334 19.1039C75.1521 18.4293 74.6534 17.8426 74.0374 17.3439C73.4214 16.8306 72.7101 16.3686 71.9034 15.9579C71.1114 15.5473 70.3047 15.1439 69.4834 14.7479C68.6621 14.3519 67.8481 13.9486 67.0414 13.5379C66.2494 13.1126 65.5454 12.6286 64.9294 12.0859C64.3134 11.5433 63.8147 10.9273 63.4334 10.2379C63.0521 9.53394 62.8614 8.70527 62.8614 7.75194C62.8614 6.94527 62.9934 6.21927 63.2574 5.57394C63.5214 4.92861 63.8734 4.36394 64.3134 3.87994C64.7681 3.38127 65.2961 2.96327 65.8974 2.62594C66.4987 2.27394 67.1367 1.98794 67.8114 1.76794C68.5007 1.54794 69.2047 1.38661 69.9234 1.28394C70.6421 1.18127 71.3461 1.12994 72.0354 1.12994C73.2821 1.12994 74.5287 1.22527 75.7754 1.41594C77.0367 1.60661 78.2394 1.92194 79.3834 2.36194L79.6254 6.67394C79.1414 6.14594 78.5767 5.63994 77.9314 5.15594C77.3007 4.67194 76.6187 4.25394 75.8854 3.90194C75.1667 3.53527 74.4261 3.24194 73.6634 3.02194C72.9154 2.80194 72.1747 2.69194 71.4414 2.69194C70.9867 2.69194 70.5247 2.75794 70.0554 2.88994C69.5861 3.00727 69.1607 3.19061 68.7794 3.43994C68.4127 3.68927 68.1121 4.01194 67.8774 4.40794C67.6427 4.78927 67.5254 5.24394 67.5254 5.77194C67.5254 6.60794 67.7087 7.33394 68.0754 7.94994C68.4567 8.55127 68.9554 9.09394 69.5714 9.57794C70.1874 10.0473 70.8841 10.4799 71.6614 10.8759C72.4534 11.2719 73.2601 11.6679 74.0814 12.0639C74.9027 12.4599 75.7021 12.8853 76.4794 13.3399C77.2714 13.7799 77.9754 14.3006 78.5914 14.9019C79.2074 15.4886 79.6987 16.1706 80.0654 16.9479C80.4467 17.7253 80.6374 18.6419 80.6374 19.6979C80.6374 20.9739 80.3734 22.0593 79.8454 22.9539C79.3174 23.8486 78.6207 24.5746 77.7554 25.1319C76.9047 25.6893 75.9367 26.0926 74.8514 26.3419C73.7661 26.5913 72.6587 26.7159 71.5294 26.7159C70.8694 26.7159 70.1507 26.6793 69.3734 26.6059C68.6107 26.5326 67.8407 26.4226 67.0634 26.2759C66.3007 26.1293 65.5527 25.9533 64.8194 25.7479C64.0861 25.5279 63.4114 25.2786 62.7954 24.9999L62.5534 20.1599ZM82.9201 1.67994V26.1219H87.2541V15.0559H98.4521V26.1219H102.786V1.67994H98.4521V13.6919H87.2541V1.67994H82.9201ZM104.998 1.12195V1.65505H106.326V5.22643H106.968V1.65505H108.298V1.12195H104.998ZM109.661 1.12195H108.881V5.22643H109.493V2.25429H109.532L110.79 5.22041H111.298L112.555 2.25629H112.595V5.22643H113.207V1.12195H112.426L111.069 4.31254H111.019L109.661 1.12195Z" fill="#121A24"/>
</svg>
