<svg width="66" height="58" viewBox="0 0 66 58" fill="none" xmlns="http://www.w3.org/2000/svg">
<path d="M21.75 17.75C21.75 15.6498 21.75 14.5997 22.1587 13.7975C22.5183 13.0919 23.0919 12.5183 23.7975 12.1587C24.5997 11.75 25.6498 11.75 27.75 11.75H38.25C40.3502 11.75 41.4003 11.75 42.2025 12.1587C42.9081 12.5183 43.4817 13.0919 43.8413 13.7975C44.25 14.5997 44.25 15.6498 44.25 17.75V24.875C44.25 26.6223 44.25 27.4959 43.9645 28.1851C43.5839 29.1039 42.8539 29.8339 41.9351 30.2145C41.2459 30.5 40.3723 30.5 38.625 30.5C38.0143 30.5 37.7089 30.5 37.4256 30.5669C37.0479 30.656 36.6961 30.8319 36.3981 31.0806C36.1747 31.2671 35.9914 31.5114 35.625 32L33.8 34.4333C33.5286 34.7952 33.3929 34.9761 33.2265 35.0408C33.0808 35.0975 32.9192 35.0975 32.7735 35.0408C32.6071 34.9761 32.4714 34.7952 32.2 34.4333L30.375 32C30.0086 31.5114 29.8253 31.2671 29.6019 31.0806C29.3039 30.8319 28.9521 30.656 28.5744 30.5669C28.2911 30.5 27.9857 30.5 27.375 30.5C25.6277 30.5 24.7541 30.5 24.0649 30.2145C23.1461 29.8339 22.4161 29.1039 22.0355 28.1851C21.75 27.4959 21.75 26.6223 21.75 24.875V17.75Z" stroke="#717171" stroke-width="1.5" stroke-linecap="round" stroke-linejoin="round"/>
<path d="M21.7816 47.03V54H20.8716V47.03H21.7816ZM25.7525 48.42C26.4192 48.42 26.9592 48.6233 27.3725 49.03C27.7858 49.43 27.9925 50.01 27.9925 50.77V54H27.0925V50.9C27.0925 50.3533 26.9558 49.9367 26.6825 49.65C26.4092 49.3567 26.0358 49.21 25.5625 49.21C25.0825 49.21 24.6992 49.36 24.4125 49.66C24.1325 49.96 23.9925 50.3967 23.9925 50.97V54H23.0825V48.52H23.9925V49.3C24.1725 49.02 24.4158 48.8033 24.7225 48.65C25.0358 48.4967 25.3792 48.42 25.7525 48.42ZM30.139 49.54C30.3257 49.2133 30.599 48.9467 30.959 48.74C31.319 48.5333 31.729 48.43 32.189 48.43C32.6823 48.43 33.1257 48.5467 33.519 48.78C33.9123 49.0133 34.2223 49.3433 34.449 49.77C34.6757 50.19 34.789 50.68 34.789 51.24C34.789 51.7933 34.6757 52.2867 34.449 52.72C34.2223 53.1533 33.909 53.49 33.509 53.73C33.1157 53.97 32.6757 54.09 32.189 54.09C31.7157 54.09 31.299 53.9867 30.939 53.78C30.5857 53.5733 30.319 53.31 30.139 52.99V54H29.229V46.6H30.139V49.54ZM33.859 51.24C33.859 50.8267 33.7757 50.4667 33.609 50.16C33.4423 49.8533 33.2157 49.62 32.929 49.46C32.649 49.3 32.339 49.22 31.999 49.22C31.6657 49.22 31.3557 49.3033 31.069 49.47C30.789 49.63 30.5623 49.8667 30.389 50.18C30.2223 50.4867 30.139 50.8433 30.139 51.25C30.139 51.6633 30.2223 52.0267 30.389 52.34C30.5623 52.6467 30.789 52.8833 31.069 53.05C31.3557 53.21 31.6657 53.29 31.999 53.29C32.339 53.29 32.649 53.21 32.929 53.05C33.2157 52.8833 33.4423 52.6467 33.609 52.34C33.7757 52.0267 33.859 51.66 33.859 51.24ZM38.1268 54.09C37.6135 54.09 37.1468 53.9733 36.7268 53.74C36.3135 53.5067 35.9868 53.1767 35.7468 52.75C35.5135 52.3167 35.3968 51.8167 35.3968 51.25C35.3968 50.69 35.5168 50.1967 35.7568 49.77C36.0035 49.3367 36.3368 49.0067 36.7568 48.78C37.1768 48.5467 37.6468 48.43 38.1668 48.43C38.6868 48.43 39.1568 48.5467 39.5768 48.78C39.9968 49.0067 40.3268 49.3333 40.5668 49.76C40.8135 50.1867 40.9368 50.6833 40.9368 51.25C40.9368 51.8167 40.8101 52.3167 40.5568 52.75C40.3101 53.1767 39.9735 53.5067 39.5468 53.74C39.1201 53.9733 38.6468 54.09 38.1268 54.09ZM38.1268 53.29C38.4535 53.29 38.7601 53.2133 39.0468 53.06C39.3335 52.9067 39.5635 52.6767 39.7368 52.37C39.9168 52.0633 40.0068 51.69 40.0068 51.25C40.0068 50.81 39.9201 50.4367 39.7468 50.13C39.5735 49.8233 39.3468 49.5967 39.0668 49.45C38.7868 49.2967 38.4835 49.22 38.1568 49.22C37.8235 49.22 37.5168 49.2967 37.2368 49.45C36.9635 49.5967 36.7435 49.8233 36.5768 50.13C36.4101 50.4367 36.3268 50.81 36.3268 51.25C36.3268 51.6967 36.4068 52.0733 36.5668 52.38C36.7335 52.6867 36.9535 52.9167 37.2268 53.07C37.5001 53.2167 37.8001 53.29 38.1268 53.29ZM44.7433 54L43.4433 51.96L42.1933 54H41.2433L43.0133 51.28L41.2433 48.52H42.2733L43.5733 50.55L44.8133 48.52H45.7633L44.0033 51.23L45.7733 54H44.7433Z" fill="#717171"/>
</svg>
