<svg width="66" height="58" viewBox="0 0 66 58" fill="none" xmlns="http://www.w3.org/2000/svg">
<path d="M21.75 33C24.6697 29.9032 28.6338 28 33 28C37.3662 28 41.3303 29.9032 44.25 33M38.625 17.375C38.625 20.4816 36.1066 23 33 23C29.8934 23 27.375 20.4816 27.375 17.375C27.375 14.2684 29.8934 11.75 33 11.75C36.1066 11.75 38.625 14.2684 38.625 17.375Z" stroke="#717171" stroke-width="1.5" stroke-linecap="round" stroke-linejoin="round"/>
<path d="M22.0159 53.26H24.4559V54H21.1059V47.03H22.0159V53.26ZM27.5623 54.09C27.049 54.09 26.5823 53.9733 26.1623 53.74C25.749 53.5067 25.4223 53.1767 25.1823 52.75C24.949 52.3167 24.8323 51.8167 24.8323 51.25C24.8323 50.69 24.9523 50.1967 25.1923 49.77C25.439 49.3367 25.7723 49.0067 26.1923 48.78C26.6123 48.5467 27.0823 48.43 27.6023 48.43C28.1223 48.43 28.5923 48.5467 29.0123 48.78C29.4323 49.0067 29.7623 49.3333 30.0023 49.76C30.249 50.1867 30.3723 50.6833 30.3723 51.25C30.3723 51.8167 30.2457 52.3167 29.9923 52.75C29.7457 53.1767 29.409 53.5067 28.9823 53.74C28.5557 53.9733 28.0823 54.09 27.5623 54.09ZM27.5623 53.29C27.889 53.29 28.1957 53.2133 28.4823 53.06C28.769 52.9067 28.999 52.6767 29.1723 52.37C29.3523 52.0633 29.4423 51.69 29.4423 51.25C29.4423 50.81 29.3557 50.4367 29.1823 50.13C29.009 49.8233 28.7823 49.5967 28.5023 49.45C28.2223 49.2967 27.919 49.22 27.5923 49.22C27.259 49.22 26.9523 49.2967 26.6723 49.45C26.399 49.5967 26.179 49.8233 26.0123 50.13C25.8457 50.4367 25.7623 50.81 25.7623 51.25C25.7623 51.6967 25.8423 52.0733 26.0023 52.38C26.169 52.6867 26.389 52.9167 26.6623 53.07C26.9357 53.2167 27.2357 53.29 27.5623 53.29ZM33.5788 48.43C34.0522 48.43 34.4655 48.5333 34.8188 48.74C35.1788 48.9467 35.4455 49.2067 35.6188 49.52V48.52H36.5388V54.12C36.5388 54.62 36.4322 55.0633 36.2188 55.45C36.0055 55.8433 35.6988 56.15 35.2988 56.37C34.9055 56.59 34.4455 56.7 33.9188 56.7C33.1988 56.7 32.5988 56.53 32.1188 56.19C31.6388 55.85 31.3555 55.3867 31.2688 54.8H32.1688C32.2688 55.1333 32.4755 55.4 32.7888 55.6C33.1022 55.8067 33.4788 55.91 33.9188 55.91C34.4188 55.91 34.8255 55.7533 35.1388 55.44C35.4588 55.1267 35.6188 54.6867 35.6188 54.12V52.97C35.4388 53.29 35.1722 53.5567 34.8188 53.77C34.4655 53.9833 34.0522 54.09 33.5788 54.09C33.0922 54.09 32.6488 53.97 32.2488 53.73C31.8555 53.49 31.5455 53.1533 31.3188 52.72C31.0922 52.2867 30.9788 51.7933 30.9788 51.24C30.9788 50.68 31.0922 50.19 31.3188 49.77C31.5455 49.3433 31.8555 49.0133 32.2488 48.78C32.6488 48.5467 33.0922 48.43 33.5788 48.43ZM35.6188 51.25C35.6188 50.8367 35.5355 50.4767 35.3688 50.17C35.2022 49.8633 34.9755 49.63 34.6888 49.47C34.4088 49.3033 34.0988 49.22 33.7588 49.22C33.4188 49.22 33.1088 49.3 32.8288 49.46C32.5488 49.62 32.3255 49.8533 32.1588 50.16C31.9922 50.4667 31.9088 50.8267 31.9088 51.24C31.9088 51.66 31.9922 52.0267 32.1588 52.34C32.3255 52.6467 32.5488 52.8833 32.8288 53.05C33.1088 53.21 33.4188 53.29 33.7588 53.29C34.0988 53.29 34.4088 53.21 34.6888 53.05C34.9755 52.8833 35.2022 52.6467 35.3688 52.34C35.5355 52.0267 35.6188 51.6633 35.6188 51.25ZM38.2966 47.63C38.1233 47.63 37.9766 47.57 37.8566 47.45C37.7366 47.33 37.6766 47.1833 37.6766 47.01C37.6766 46.8367 37.7366 46.69 37.8566 46.57C37.9766 46.45 38.1233 46.39 38.2966 46.39C38.4633 46.39 38.6033 46.45 38.7166 46.57C38.8366 46.69 38.8966 46.8367 38.8966 47.01C38.8966 47.1833 38.8366 47.33 38.7166 47.45C38.6033 47.57 38.4633 47.63 38.2966 47.63ZM38.7366 48.52V54H37.8266V48.52H38.7366ZM42.7076 48.42C43.3742 48.42 43.9142 48.6233 44.3276 49.03C44.7409 49.43 44.9476 50.01 44.9476 50.77V54H44.0476V50.9C44.0476 50.3533 43.9109 49.9367 43.6376 49.65C43.3642 49.3567 42.9909 49.21 42.5176 49.21C42.0376 49.21 41.6542 49.36 41.3676 49.66C41.0876 49.96 40.9476 50.3967 40.9476 50.97V54H40.0376V48.52H40.9476V49.3C41.1276 49.02 41.3709 48.8033 41.6776 48.65C41.9909 48.4967 42.3342 48.42 42.7076 48.42Z" fill="#717171"/>
</svg>
