<svg width="62" height="58" viewBox="0 0 62 58" fill="none" xmlns="http://www.w3.org/2000/svg">
<path d="M31 18V28M26 23H36M25.75 34.25H36.25C38.3502 34.25 39.4003 34.25 40.2025 33.8413C40.9081 33.4817 41.4817 32.9081 41.8413 32.2025C42.25 31.4003 42.25 30.3502 42.25 28.25V17.75C42.25 15.6498 42.25 14.5997 41.8413 13.7975C41.4817 13.0919 40.9081 12.5183 40.2025 12.1587C39.4003 11.75 38.3502 11.75 36.25 11.75H25.75C23.6498 11.75 22.5997 11.75 21.7975 12.1587C21.0919 12.5183 20.5183 13.0919 20.1587 13.7975C19.75 14.5997 19.75 15.6498 19.75 17.75V28.25C19.75 30.3502 19.75 31.4003 20.1587 32.2025C20.5183 32.9081 21.0919 33.4817 21.7975 33.8413C22.5997 34.25 23.6498 34.25 25.75 34.25Z" stroke="#717171" stroke-width="1.5" stroke-linecap="round" stroke-linejoin="round"/>
<path d="M18.5618 49.07C18.5618 49.65 18.3618 50.1333 17.9618 50.52C17.5685 50.9 16.9652 51.09 16.1518 51.09H14.8118V54H13.9018V47.03H16.1518C16.9385 47.03 17.5352 47.22 17.9418 47.6C18.3552 47.98 18.5618 48.47 18.5618 49.07ZM16.1518 50.34C16.6585 50.34 17.0318 50.23 17.2718 50.01C17.5118 49.79 17.6318 49.4767 17.6318 49.07C17.6318 48.21 17.1385 47.78 16.1518 47.78H14.8118V50.34H16.1518ZM21.8329 54.09C21.3195 54.09 20.8529 53.9733 20.4329 53.74C20.0195 53.5067 19.6929 53.1767 19.4529 52.75C19.2195 52.3167 19.1029 51.8167 19.1029 51.25C19.1029 50.69 19.2229 50.1967 19.4629 49.77C19.7095 49.3367 20.0429 49.0067 20.4629 48.78C20.8829 48.5467 21.3529 48.43 21.8729 48.43C22.3929 48.43 22.8629 48.5467 23.2829 48.78C23.7029 49.0067 24.0329 49.3333 24.2729 49.76C24.5195 50.1867 24.6429 50.6833 24.6429 51.25C24.6429 51.8167 24.5162 52.3167 24.2629 52.75C24.0162 53.1767 23.6795 53.5067 23.2529 53.74C22.8262 53.9733 22.3529 54.09 21.8329 54.09ZM21.8329 53.29C22.1595 53.29 22.4662 53.2133 22.7529 53.06C23.0395 52.9067 23.2695 52.6767 23.4429 52.37C23.6229 52.0633 23.7129 51.69 23.7129 51.25C23.7129 50.81 23.6262 50.4367 23.4529 50.13C23.2795 49.8233 23.0529 49.5967 22.7729 49.45C22.4929 49.2967 22.1895 49.22 21.8629 49.22C21.5295 49.22 21.2229 49.2967 20.9429 49.45C20.6695 49.5967 20.4495 49.8233 20.2829 50.13C20.1162 50.4367 20.0329 50.81 20.0329 51.25C20.0329 51.6967 20.1129 52.0733 20.2729 52.38C20.4395 52.6867 20.6595 52.9167 20.9329 53.07C21.2062 53.2167 21.5062 53.29 21.8329 53.29ZM27.5293 54.09C27.1093 54.09 26.7327 54.02 26.3993 53.88C26.066 53.7333 25.8027 53.5333 25.6093 53.28C25.416 53.02 25.3093 52.7233 25.2893 52.39H26.2293C26.256 52.6633 26.3827 52.8867 26.6093 53.06C26.8427 53.2333 27.146 53.32 27.5193 53.32C27.866 53.32 28.1393 53.2433 28.3393 53.09C28.5393 52.9367 28.6393 52.7433 28.6393 52.51C28.6393 52.27 28.5327 52.0933 28.3193 51.98C28.106 51.86 27.776 51.7433 27.3293 51.63C26.9227 51.5233 26.5893 51.4167 26.3293 51.31C26.076 51.1967 25.856 51.0333 25.6693 50.82C25.4893 50.6 25.3993 50.3133 25.3993 49.96C25.3993 49.68 25.4827 49.4233 25.6493 49.19C25.816 48.9567 26.0527 48.7733 26.3593 48.64C26.666 48.5 27.016 48.43 27.4093 48.43C28.016 48.43 28.506 48.5833 28.8793 48.89C29.2527 49.1967 29.4527 49.6167 29.4793 50.15H28.5693C28.5493 49.8633 28.4327 49.6333 28.2193 49.46C28.0127 49.2867 27.7327 49.2 27.3793 49.2C27.0527 49.2 26.7927 49.27 26.5993 49.41C26.406 49.55 26.3093 49.7333 26.3093 49.96C26.3093 50.14 26.366 50.29 26.4793 50.41C26.5993 50.5233 26.746 50.6167 26.9193 50.69C27.0993 50.7567 27.346 50.8333 27.6593 50.92C28.0527 51.0267 28.3727 51.1333 28.6193 51.24C28.866 51.34 29.076 51.4933 29.2493 51.7C29.4293 51.9067 29.5227 52.1767 29.5293 52.51C29.5293 52.81 29.446 53.08 29.2793 53.32C29.1127 53.56 28.876 53.75 28.5693 53.89C28.2693 54.0233 27.9227 54.09 27.5293 54.09ZM31.6739 49.27V52.5C31.6739 52.7667 31.7306 52.9567 31.8439 53.07C31.9573 53.1767 32.1539 53.23 32.4339 53.23H33.1039V54H32.2839C31.7773 54 31.3973 53.8833 31.1439 53.65C30.8906 53.4167 30.7639 53.0333 30.7639 52.5V49.27H30.0539V48.52H30.7639V47.14H31.6739V48.52H33.1039V49.27H31.6739ZM36.0325 51.24C36.0325 50.68 36.1459 50.19 36.3725 49.77C36.5992 49.3433 36.9092 49.0133 37.3025 48.78C37.7025 48.5467 38.1459 48.43 38.6325 48.43C39.1125 48.43 39.5292 48.5333 39.8825 48.74C40.2359 48.9467 40.4992 49.2067 40.6725 49.52V48.52H41.5925V54H40.6725V52.98C40.4925 53.3 40.2225 53.5667 39.8625 53.78C39.5092 53.9867 39.0959 54.09 38.6225 54.09C38.1359 54.09 37.6959 53.97 37.3025 53.73C36.9092 53.49 36.5992 53.1533 36.3725 52.72C36.1459 52.2867 36.0325 51.7933 36.0325 51.24ZM40.6725 51.25C40.6725 50.8367 40.5892 50.4767 40.4225 50.17C40.2559 49.8633 40.0292 49.63 39.7425 49.47C39.4625 49.3033 39.1525 49.22 38.8125 49.22C38.4725 49.22 38.1625 49.3 37.8825 49.46C37.6025 49.62 37.3792 49.8533 37.2125 50.16C37.0459 50.4667 36.9625 50.8267 36.9625 51.24C36.9625 51.66 37.0459 52.0267 37.2125 52.34C37.3792 52.6467 37.6025 52.8833 37.8825 53.05C38.1625 53.21 38.4725 53.29 38.8125 53.29C39.1525 53.29 39.4625 53.21 39.7425 53.05C40.0292 52.8833 40.2559 52.6467 40.4225 52.34C40.5892 52.0267 40.6725 51.6633 40.6725 51.25ZM42.5404 51.24C42.5404 50.68 42.6537 50.19 42.8804 49.77C43.107 49.3433 43.417 49.0133 43.8104 48.78C44.2104 48.5467 44.657 48.43 45.1504 48.43C45.577 48.43 45.9737 48.53 46.3404 48.73C46.707 48.9233 46.987 49.18 47.1804 49.5V46.6H48.1004V54H47.1804V52.97C47.0004 53.2967 46.7337 53.5667 46.3804 53.78C46.027 53.9867 45.6137 54.09 45.1404 54.09C44.6537 54.09 44.2104 53.97 43.8104 53.73C43.417 53.49 43.107 53.1533 42.8804 52.72C42.6537 52.2867 42.5404 51.7933 42.5404 51.24ZM47.1804 51.25C47.1804 50.8367 47.097 50.4767 46.9304 50.17C46.7637 49.8633 46.537 49.63 46.2504 49.47C45.9704 49.3033 45.6604 49.22 45.3204 49.22C44.9804 49.22 44.6704 49.3 44.3904 49.46C44.1104 49.62 43.887 49.8533 43.7204 50.16C43.5537 50.4667 43.4704 50.8267 43.4704 51.24C43.4704 51.66 43.5537 52.0267 43.7204 52.34C43.887 52.6467 44.1104 52.8833 44.3904 53.05C44.6704 53.21 44.9804 53.29 45.3204 53.29C45.6604 53.29 45.9704 53.21 46.2504 53.05C46.537 52.8833 46.7637 52.6467 46.9304 52.34C47.097 52.0267 47.1804 51.6633 47.1804 51.25Z" fill="#717171"/>
</svg>
