<svg width="57" height="58" viewBox="0 0 57 58" fill="none" xmlns="http://www.w3.org/2000/svg">
<path d="M27.6033 12.3166C27.8914 11.7329 28.0355 11.4411 28.231 11.3478C28.4012 11.2667 28.5988 11.2667 28.769 11.3478C28.9645 11.4411 29.1086 11.7329 29.3967 12.3166L32.1301 17.854C32.2151 18.0264 32.2576 18.1125 32.3198 18.1794C32.3748 18.2386 32.4408 18.2866 32.5141 18.3207C32.5969 18.3592 32.692 18.3731 32.8821 18.4009L38.9962 19.2946C39.6401 19.3887 39.962 19.4357 40.111 19.593C40.2406 19.7298 40.3015 19.9178 40.2769 20.1047C40.2485 20.3194 40.0154 20.5464 39.5493 21.0004L35.1268 25.308C34.9889 25.4422 34.92 25.5094 34.8755 25.5893C34.8361 25.66 34.8109 25.7377 34.8011 25.8181C34.7901 25.9088 34.8064 26.0037 34.8389 26.1934L35.8824 32.2776C35.9925 32.9193 36.0475 33.2402 35.9441 33.4306C35.8541 33.5962 35.6942 33.7124 35.5088 33.7468C35.2958 33.7863 35.0076 33.6347 34.4314 33.3317L28.9654 30.4572C28.7951 30.3677 28.71 30.3229 28.6203 30.3053C28.5408 30.2897 28.4591 30.2897 28.3797 30.3053C28.29 30.3229 28.2049 30.3677 28.0345 30.4572L22.5686 33.3317C21.9924 33.6348 21.7042 33.7863 21.4912 33.7468C21.3058 33.7124 21.1459 33.5962 21.0559 33.4306C20.9525 33.2402 21.0075 32.9193 21.1176 32.2776L22.1611 26.1934C22.1936 26.0037 22.2099 25.9088 22.1989 25.8181C22.1891 25.7377 22.1639 25.66 22.1245 25.5893C22.08 25.5094 22.0111 25.4422 21.8732 25.308L17.4507 21.0004C16.9846 20.5464 16.7515 20.3194 16.7231 20.1047C16.6985 19.9178 16.7594 19.7298 16.889 19.593C17.038 19.4357 17.3599 19.3887 18.0038 19.2946L24.1179 18.4009C24.308 18.3731 24.4031 18.3592 24.4859 18.3207C24.5592 18.2866 24.6252 18.2386 24.6802 18.1794C24.7424 18.1125 24.7849 18.0264 24.8699 17.854L27.6033 12.3166Z" stroke="#717171" stroke-width="1.5" stroke-linecap="round" stroke-linejoin="round"/>
<path d="M16.3843 54.07C15.9243 54.07 15.511 53.99 15.1443 53.83C14.7843 53.6633 14.501 53.4367 14.2943 53.15C14.0876 52.8567 13.981 52.52 13.9743 52.14H14.9443C14.9776 52.4667 15.111 52.7433 15.3443 52.97C15.5843 53.19 15.931 53.3 16.3843 53.3C16.8176 53.3 17.1576 53.1933 17.4043 52.98C17.6576 52.76 17.7843 52.48 17.7843 52.14C17.7843 51.8733 17.711 51.6567 17.5643 51.49C17.4176 51.3233 17.2343 51.1967 17.0143 51.11C16.7943 51.0233 16.4976 50.93 16.1243 50.83C15.6643 50.71 15.2943 50.59 15.0143 50.47C14.741 50.35 14.5043 50.1633 14.3043 49.91C14.111 49.65 14.0143 49.3033 14.0143 48.87C14.0143 48.49 14.111 48.1533 14.3043 47.86C14.4976 47.5667 14.7676 47.34 15.1143 47.18C15.4676 47.02 15.871 46.94 16.3243 46.94C16.9776 46.94 17.511 47.1033 17.9243 47.43C18.3443 47.7567 18.581 48.19 18.6343 48.73H17.6343C17.601 48.4633 17.461 48.23 17.2143 48.03C16.9676 47.8233 16.641 47.72 16.2343 47.72C15.8543 47.72 15.5443 47.82 15.3043 48.02C15.0643 48.2133 14.9443 48.4867 14.9443 48.84C14.9443 49.0933 15.0143 49.3 15.1543 49.46C15.301 49.62 15.4776 49.7433 15.6843 49.83C15.8976 49.91 16.1943 50.0033 16.5743 50.11C17.0343 50.2367 17.4043 50.3633 17.6843 50.49C17.9643 50.61 18.2043 50.8 18.4043 51.06C18.6043 51.3133 18.7043 51.66 18.7043 52.1C18.7043 52.44 18.6143 52.76 18.4343 53.06C18.2543 53.36 17.9876 53.6033 17.6343 53.79C17.281 53.9767 16.8643 54.07 16.3843 54.07ZM19.4534 51.24C19.4534 50.68 19.5668 50.19 19.7934 49.77C20.0201 49.3433 20.3301 49.0133 20.7234 48.78C21.1234 48.5467 21.5668 48.43 22.0534 48.43C22.5334 48.43 22.9501 48.5333 23.3034 48.74C23.6568 48.9467 23.9201 49.2067 24.0934 49.52V48.52H25.0134V54H24.0934V52.98C23.9134 53.3 23.6434 53.5667 23.2834 53.78C22.9301 53.9867 22.5168 54.09 22.0434 54.09C21.5568 54.09 21.1168 53.97 20.7234 53.73C20.3301 53.49 20.0201 53.1533 19.7934 52.72C19.5668 52.2867 19.4534 51.7933 19.4534 51.24ZM24.0934 51.25C24.0934 50.8367 24.0101 50.4767 23.8434 50.17C23.6768 49.8633 23.4501 49.63 23.1634 49.47C22.8834 49.3033 22.5734 49.22 22.2334 49.22C21.8934 49.22 21.5834 49.3 21.3034 49.46C21.0234 49.62 20.8001 49.8533 20.6334 50.16C20.4668 50.4667 20.3834 50.8267 20.3834 51.24C20.3834 51.66 20.4668 52.0267 20.6334 52.34C20.8001 52.6467 21.0234 52.8833 21.3034 53.05C21.5834 53.21 21.8934 53.29 22.2334 53.29C22.5734 53.29 22.8834 53.21 23.1634 53.05C23.4501 52.8833 23.6768 52.6467 23.8434 52.34C24.0101 52.0267 24.0934 51.6633 24.0934 51.25ZM28.3413 53.16L30.0413 48.52H31.0113L28.8613 54H27.8013L25.6513 48.52H26.6313L28.3413 53.16ZM36.6567 51.05C36.6567 51.2233 36.6467 51.4067 36.6267 51.6H32.2467C32.2801 52.14 32.4634 52.5633 32.7967 52.87C33.1367 53.17 33.5467 53.32 34.0267 53.32C34.4201 53.32 34.7467 53.23 35.0067 53.05C35.2734 52.8633 35.4601 52.6167 35.5667 52.31H36.5467C36.4001 52.8367 36.1067 53.2667 35.6667 53.6C35.2267 53.9267 34.6801 54.09 34.0267 54.09C33.5067 54.09 33.0401 53.9733 32.6267 53.74C32.2201 53.5067 31.9001 53.1767 31.6667 52.75C31.4334 52.3167 31.3167 51.8167 31.3167 51.25C31.3167 50.6833 31.4301 50.1867 31.6567 49.76C31.8834 49.3333 32.2001 49.0067 32.6067 48.78C33.0201 48.5467 33.4934 48.43 34.0267 48.43C34.5467 48.43 35.0067 48.5433 35.4067 48.77C35.8067 48.9967 36.1134 49.31 36.3267 49.71C36.5467 50.1033 36.6567 50.55 36.6567 51.05ZM35.7167 50.86C35.7167 50.5133 35.6401 50.2167 35.4867 49.97C35.3334 49.7167 35.1234 49.5267 34.8567 49.4C34.5967 49.2667 34.3067 49.2 33.9867 49.2C33.5267 49.2 33.1334 49.3467 32.8067 49.64C32.4867 49.9333 32.3034 50.34 32.2567 50.86H35.7167ZM37.2679 51.24C37.2679 50.68 37.3812 50.19 37.6079 49.77C37.8346 49.3433 38.1446 49.0133 38.5379 48.78C38.9379 48.5467 39.3846 48.43 39.8779 48.43C40.3046 48.43 40.7012 48.53 41.0679 48.73C41.4346 48.9233 41.7146 49.18 41.9079 49.5V46.6H42.8279V54H41.9079V52.97C41.7279 53.2967 41.4612 53.5667 41.1079 53.78C40.7546 53.9867 40.3412 54.09 39.8679 54.09C39.3812 54.09 38.9379 53.97 38.5379 53.73C38.1446 53.49 37.8346 53.1533 37.6079 52.72C37.3812 52.2867 37.2679 51.7933 37.2679 51.24ZM41.9079 51.25C41.9079 50.8367 41.8246 50.4767 41.6579 50.17C41.4912 49.8633 41.2646 49.63 40.9779 49.47C40.6979 49.3033 40.3879 49.22 40.0479 49.22C39.7079 49.22 39.3979 49.3 39.1179 49.46C38.8379 49.62 38.6146 49.8533 38.4479 50.16C38.2812 50.4667 38.1979 50.8267 38.1979 51.24C38.1979 51.66 38.2812 52.0267 38.4479 52.34C38.6146 52.6467 38.8379 52.8833 39.1179 53.05C39.3979 53.21 39.7079 53.29 40.0479 53.29C40.3879 53.29 40.6979 53.21 40.9779 53.05C41.2646 52.8833 41.4912 52.6467 41.6579 52.34C41.8246 52.0267 41.9079 51.6633 41.9079 51.25Z" fill="#717171"/>
</svg>
