<svg width="62" height="58" viewBox="0 0 62 58" fill="none" xmlns="http://www.w3.org/2000/svg">
<path d="M42.25 34.25L37.8751 29.875M41 22.375C41 28.243 36.243 33 30.375 33C24.507 33 19.75 28.243 19.75 22.375C19.75 16.507 24.507 11.75 30.375 11.75C36.243 11.75 41 16.507 41 22.375Z" stroke="#717171" stroke-width="1.5" stroke-linecap="round" stroke-linejoin="round"/>
<path d="M17.0904 54.07C16.6304 54.07 16.217 53.99 15.8504 53.83C15.4904 53.6633 15.207 53.4367 15.0004 53.15C14.7937 52.8567 14.687 52.52 14.6804 52.14H15.6504C15.6837 52.4667 15.817 52.7433 16.0504 52.97C16.2904 53.19 16.637 53.3 17.0904 53.3C17.5237 53.3 17.8637 53.1933 18.1104 52.98C18.3637 52.76 18.4904 52.48 18.4904 52.14C18.4904 51.8733 18.417 51.6567 18.2704 51.49C18.1237 51.3233 17.9404 51.1967 17.7204 51.11C17.5004 51.0233 17.2037 50.93 16.8304 50.83C16.3704 50.71 16.0004 50.59 15.7204 50.47C15.447 50.35 15.2104 50.1633 15.0104 49.91C14.817 49.65 14.7204 49.3033 14.7204 48.87C14.7204 48.49 14.817 48.1533 15.0104 47.86C15.2037 47.5667 15.4737 47.34 15.8204 47.18C16.1737 47.02 16.577 46.94 17.0304 46.94C17.6837 46.94 18.217 47.1033 18.6304 47.43C19.0504 47.7567 19.287 48.19 19.3404 48.73H18.3404C18.307 48.4633 18.167 48.23 17.9204 48.03C17.6737 47.8233 17.347 47.72 16.9404 47.72C16.5604 47.72 16.2504 47.82 16.0104 48.02C15.7704 48.2133 15.6504 48.4867 15.6504 48.84C15.6504 49.0933 15.7204 49.3 15.8604 49.46C16.007 49.62 16.1837 49.7433 16.3904 49.83C16.6037 49.91 16.9004 50.0033 17.2804 50.11C17.7404 50.2367 18.1104 50.3633 18.3904 50.49C18.6704 50.61 18.9104 50.8 19.1104 51.06C19.3104 51.3133 19.4104 51.66 19.4104 52.1C19.4104 52.44 19.3204 52.76 19.1404 53.06C18.9604 53.36 18.6937 53.6033 18.3404 53.79C17.987 53.9767 17.5704 54.07 17.0904 54.07ZM25.4995 51.05C25.4995 51.2233 25.4895 51.4067 25.4695 51.6H21.0895C21.1228 52.14 21.3062 52.5633 21.6395 52.87C21.9795 53.17 22.3895 53.32 22.8695 53.32C23.2628 53.32 23.5895 53.23 23.8495 53.05C24.1162 52.8633 24.3028 52.6167 24.4095 52.31H25.3895C25.2428 52.8367 24.9495 53.2667 24.5095 53.6C24.0695 53.9267 23.5228 54.09 22.8695 54.09C22.3495 54.09 21.8828 53.9733 21.4695 53.74C21.0628 53.5067 20.7428 53.1767 20.5095 52.75C20.2762 52.3167 20.1595 51.8167 20.1595 51.25C20.1595 50.6833 20.2728 50.1867 20.4995 49.76C20.7262 49.3333 21.0428 49.0067 21.4495 48.78C21.8628 48.5467 22.3362 48.43 22.8695 48.43C23.3895 48.43 23.8495 48.5433 24.2495 48.77C24.6495 48.9967 24.9562 49.31 25.1695 49.71C25.3895 50.1033 25.4995 50.55 25.4995 51.05ZM24.5595 50.86C24.5595 50.5133 24.4828 50.2167 24.3295 49.97C24.1762 49.7167 23.9662 49.5267 23.6995 49.4C23.4395 49.2667 23.1495 49.2 22.8295 49.2C22.3695 49.2 21.9762 49.3467 21.6495 49.64C21.3295 49.9333 21.1462 50.34 21.0995 50.86H24.5595ZM26.1107 51.24C26.1107 50.68 26.224 50.19 26.4507 49.77C26.6773 49.3433 26.9873 49.0133 27.3807 48.78C27.7807 48.5467 28.224 48.43 28.7107 48.43C29.1907 48.43 29.6073 48.5333 29.9607 48.74C30.314 48.9467 30.5773 49.2067 30.7507 49.52V48.52H31.6707V54H30.7507V52.98C30.5707 53.3 30.3007 53.5667 29.9407 53.78C29.5873 53.9867 29.174 54.09 28.7007 54.09C28.214 54.09 27.774 53.97 27.3807 53.73C26.9873 53.49 26.6773 53.1533 26.4507 52.72C26.224 52.2867 26.1107 51.7933 26.1107 51.24ZM30.7507 51.25C30.7507 50.8367 30.6673 50.4767 30.5007 50.17C30.334 49.8633 30.1073 49.63 29.8207 49.47C29.5407 49.3033 29.2307 49.22 28.8907 49.22C28.5507 49.22 28.2407 49.3 27.9607 49.46C27.6807 49.62 27.4573 49.8533 27.2907 50.16C27.124 50.4667 27.0407 50.8267 27.0407 51.24C27.0407 51.66 27.124 52.0267 27.2907 52.34C27.4573 52.6467 27.6807 52.8833 27.9607 53.05C28.2407 53.21 28.5507 53.29 28.8907 53.29C29.2307 53.29 29.5407 53.21 29.8207 53.05C30.1073 52.8833 30.334 52.6467 30.5007 52.34C30.6673 52.0267 30.7507 51.6633 30.7507 51.25ZM33.8685 49.41C34.0285 49.0967 34.2551 48.8533 34.5485 48.68C34.8485 48.5067 35.2118 48.42 35.6385 48.42V49.36H35.3985C34.3785 49.36 33.8685 49.9133 33.8685 51.02V54H32.9585V48.52H33.8685V49.41ZM36.0989 51.25C36.0989 50.6833 36.2123 50.19 36.4389 49.77C36.6656 49.3433 36.9789 49.0133 37.3789 48.78C37.7856 48.5467 38.2489 48.43 38.7689 48.43C39.4423 48.43 39.9956 48.5933 40.4289 48.92C40.8689 49.2467 41.1589 49.7 41.2989 50.28H40.3189C40.2256 49.9467 40.0423 49.6833 39.7689 49.49C39.5023 49.2967 39.1689 49.2 38.7689 49.2C38.2489 49.2 37.8289 49.38 37.5089 49.74C37.1889 50.0933 37.0289 50.5967 37.0289 51.25C37.0289 51.91 37.1889 52.42 37.5089 52.78C37.8289 53.14 38.2489 53.32 38.7689 53.32C39.1689 53.32 39.5023 53.2267 39.7689 53.04C40.0356 52.8533 40.2189 52.5867 40.3189 52.24H41.2989C41.1523 52.8 40.8589 53.25 40.4189 53.59C39.9789 53.9233 39.4289 54.09 38.7689 54.09C38.2489 54.09 37.7856 53.9733 37.3789 53.74C36.9789 53.5067 36.6656 53.1767 36.4389 52.75C36.2123 52.3233 36.0989 51.8233 36.0989 51.25ZM44.9832 48.42C45.3965 48.42 45.7698 48.51 46.1032 48.69C46.4365 48.8633 46.6965 49.1267 46.8832 49.48C47.0765 49.8333 47.1732 50.2633 47.1732 50.77V54H46.2732V50.9C46.2732 50.3533 46.1365 49.9367 45.8632 49.65C45.5898 49.3567 45.2165 49.21 44.7432 49.21C44.2632 49.21 43.8798 49.36 43.5932 49.66C43.3132 49.96 43.1732 50.3967 43.1732 50.97V54H42.2632V46.6H43.1732V49.3C43.3532 49.02 43.5998 48.8033 43.9132 48.65C44.2332 48.4967 44.5898 48.42 44.9832 48.42Z" fill="#717171"/>
</svg>
